<?xml version="1.0" standalone="no"?>
<!DOCTYPE svg PUBLIC "-//W3C//DTD SVG 20010904//EN"
 "http://www.w3.org/TR/2001/REC-SVG-20010904/DTD/svg10.dtd">
<svg version="1.0" xmlns="http://www.w3.org/2000/svg"
 width="224.000000pt" height="224.000000pt" viewBox="0 0 224.000000 224.000000"
 preserveAspectRatio="xMidYMid meet">

<g transform="translate(0.000000,224.000000) scale(0.100000,-0.100000)"
fill="#000000" stroke="none">
<path d="M0 1120 l0 -1120 1120 0 1120 0 0 1120 0 1120 -1120 0 -1120 0 0
-1120z m1365 629 c116 -67 250 -144 298 -171 136 -77 128 -46 125 -470 l-3
-358 -30 -29 c-26 -26 -453 -279 -575 -341 -57 -29 -87 -23 -191 38 -46 27
-169 99 -274 159 -241 139 -230 131 -249 164 -14 24 -16 73 -16 376 0 324 1
350 19 379 13 22 63 57 168 117 81 47 215 124 297 171 112 64 159 86 186 86
27 0 84 -28 245 -121z"/>
<path d="M1030 1630 c-113 -20 -242 -94 -307 -177 l-32 -39 113 -65 113 -65
38 33 c39 34 116 63 165 63 49 0 126 -29 165 -63 l39 -34 90 53 c141 82 134
75 107 113 -13 18 -45 50 -72 71 -120 95 -274 135 -419 110z"/>
<path d="M625 1283 c-25 -72 -30 -204 -11 -287 43 -183 190 -334 370 -382 100
-27 96 -32 96 111 l0 125 -57 26 c-69 30 -96 54 -131 114 -24 39 -27 56 -27
135 l-1 89 -99 57 c-55 32 -105 58 -112 58 -6 1 -19 -20 -28 -46z"/>
<path d="M1473 1272 l-102 -57 6 -66 c11 -125 -40 -216 -153 -269 l-64 -31 0
-125 c0 -142 -4 -137 96 -110 183 48 342 219 375 401 20 109 -9 316 -44 315
-7 -1 -58 -27 -114 -58z"/>
</g>
</svg>
